<!DOCTYPE svg PUBLIC "-//W3C//DTD SVG 1.1//EN" "http://www.w3.org/Graphics/SVG/1.1/DTD/svg11.dtd">
<!-- Uploaded to: SVG Repo, www.svgrepo.com, Transformed by: SVG Repo Mixer Tools -->
<svg fill="#24a800" height="800px" width="800px" version="1.1" id="Capa_1" xmlns="http://www.w3.org/2000/svg" xmlns:xlink="http://www.w3.org/1999/xlink" viewBox="0 0 229.917 229.917" xml:space="preserve" stroke="#24a800">
<g id="SVGRepo_bgCarrier" stroke-width="0"/>
<g id="SVGRepo_tracerCarrier" stroke-linecap="round" stroke-linejoin="round"/>
<g id="SVGRepo_iconCarrier"> <path d="M44.356,85.889c0.002-0.224,0.025-0.448,0.029-0.672c0.665-38.815,31.969-69.437,70.682-69.437 c0.276,0,0.476,0.002,0.753,0.005c38.65,0.44,69.847,31.908,69.847,70.662c0,0.051,0,0.102,0,0.153 c0,8.674-6.209,16.152-14.691,17.968c-16.981,3.635-35.686,5.642-55.22,5.642c-20.158,0-39.296-2.139-56.709-5.998 C50.434,102.304,44.287,94.709,44.356,85.889z M177.09,172.125l2.803,8.037l6.137-2.141c3.91-1.36,8.188,0.701,9.552,4.612 c1.363,3.91-0.701,8.188-4.612,9.552l-13.21,4.608c-0.003,0.001-0.005,0.002-0.008,0.003c-0.002,0.001-0.004,0.001-0.005,0.001 l-13.213,4.609c-0.817,0.284-1.65,0.42-2.47,0.42c-3.102,0-6.003-1.938-7.082-5.032c-1.363-3.91,0.701-8.188,4.612-9.552 l6.136-2.141l-3.275-8.912c-12.502,2.934-25.787,4.746-40.787,5.192v17.755H129c4.143,0,7.5,3.357,7.5,7.5s-3.357,7.5-7.5,7.5h-28 c-4.143,0-7.5-3.357-7.5-7.5s3.357-7.5,7.5-7.5h5.667V181.35c-14-0.51-27.912-2.387-40.373-5.381l-3.102,9.133l6.179,2.141 c3.911,1.364,5.996,5.641,4.633,9.552c-1.079,3.094-3.97,5.032-7.072,5.032c-0.819,0-1.647-0.135-2.465-0.42l-13.21-4.609 c-0.002-0.001-0.003-0.001-0.006-0.002c-0.004-0.001-0.007-0.003-0.011-0.005l-13.207-4.607c-3.911-1.364-5.975-5.641-4.612-9.552 c1.364-3.911,5.64-5.977,9.552-4.612l6.137,2.141l2.909-8.339C20.693,161.238,0,142.988,0,122.245 c0-15.22,11.143-29.098,29.45-39.592c-0.033,0.769-0.082,1.534-0.095,2.307c-0.005,0.275-0.013,0.544-0.015,0.814 c-0.122,15.74,11.019,29.654,26.494,33.084c19.024,4.216,39.21,6.353,60,6.353c20.151,0,39.759-2.01,58.279-5.975 c15.352-3.286,26.553-16.998,26.553-32.603v-0.186c0-1.199,0.128-2.392,0.078-3.583c18.091,10.469,29.172,24.262,29.172,39.382 C229.917,143.185,208.916,161.587,177.09,172.125z M79.333,149.412c0-3.82-3.097-6.917-6.917-6.917c-3.82,0-6.917,3.097-6.917,6.917 c0,3.82,3.097,6.917,6.917,6.917C76.237,156.328,79.333,153.231,79.333,149.412z M125.5,152.995c0-5.799-4.701-10.5-10.5-10.5 s-10.5,4.701-10.5,10.5s4.701,10.5,10.5,10.5S125.5,158.794,125.5,152.995z M157.583,156.328c3.82,0,6.917-3.097,6.917-6.917 c0-3.82-3.097-6.917-6.917-6.917c-3.82,0-6.917,3.097-6.917,6.917C150.667,153.231,153.763,156.328,157.583,156.328z"/> </g>
</svg>